<?xml version="1.0" encoding="UTF-8" standalone="no"?><!DOCTYPE svg PUBLIC "-//W3C//DTD SVG 1.1//EN" "http://www.w3.org/Graphics/SVG/1.1/DTD/svg11.dtd"><svg width="100%" height="100%" viewBox="0 0 16667 16667" version="1.1" xmlns="http://www.w3.org/2000/svg" xmlns:xlink="http://www.w3.org/1999/xlink" xml:space="preserve" xmlns:serif="http://www.serif.com/" style="fill-rule:evenodd;clip-rule:evenodd;stroke-linejoin:round;stroke-miterlimit:2;"><g id="Calque-1" serif:id="Calque 1"><path d="M7507.77,3618.91c-545.467,149.175 -1062.17,399.6 -1516.39,736.559c-464.391,344.516 -863.796,776.983 -1167.66,1269.09c-161.092,260.888 -291.275,538.796 -407.412,822.234c-103.392,252.329 -183.85,514.045 -239.796,780.933c-111.9,533.825 -125.238,1087.51 -39,1626.08c88.191,550.759 280.537,1083.57 564.208,1563.81c294.546,498.65 686.008,938.87 1142.96,1294.32c443.317,344.838 948.542,608.026 1484.58,775.425c526.546,164.43 1081.17,236.434 1632.26,213.271c555.304,-23.333 1106.12,-143.641 1619.88,-355.883c510.209,-210.771 980.654,-511.908 1387.36,-885.008c4.375,-4.013 10.124,-21.471 11.666,-24.863l53.404,-121.354c2.663,-6.229 5.784,-21.117 10.454,-25.4c-416.97,382.517 -900.991,689.371 -1426,900.775c-505.571,203.575 -1045.85,318.596 -1590.36,340.496c-541.967,21.791 -1087.19,-48.571 -1605.6,-208.217c-530.425,-163.341 -1031.2,-420.45 -1472.08,-757.687c-452.417,-346.063 -842.184,-774.805 -1139.14,-1261.11c-284.762,-466.354 -482.779,-984.412 -581.204,-1521.92c-96.887,-529.12 -97.237,-1075.12 -1.3,-1604.41c48.7,-268.658 121.938,-532.933 218.971,-788.15l54.229,-135.746c14.083,-33.487 -10.525,21.571 -11.396,25.471c6.45,-28.767 27.892,-60.075 40.684,-86.437c14.77,-30.446 29.883,-60.721 45.341,-90.821c64.584,-125.775 135.288,-248.417 211.563,-367.463c307.112,-479.325 705.696,-899.804 1166.38,-1234.08c448.571,-325.479 956.212,-567.337 1491.17,-711.925c526.725,-142.358 1078.25,-190.575 1621.75,-142.858c542.096,47.6 1075.34,190.45 1567.67,422.504c508,239.454 969.692,573.383 1356.76,980.246c388.888,408.771 699.2,890.804 905.921,1415.98c197.338,501.325 299.617,1038.95 300.792,1577.68c1.171,539.096 -98.629,1078.06 -294.096,1580.54l-44.679,108.312c-29.354,62.55 -60.308,124.363 -92.696,185.396c-64.862,122.242 -135.708,241.321 -211.967,356.796c-156.57,237.088 -336.412,458.696 -535.541,661.333c-397.659,404.65 -871.625,732.346 -1391.77,959.167c-500.117,218.083 -1039.77,342.688 -1584.69,368.133c-541.913,25.309 -1087.93,-47.287 -1604.05,-214.604c-529.504,-171.658 -1025.5,-443.05 -1454.53,-797.804c-437.891,-362.075 -805.787,-808.475 -1071.43,-1311.08c-253.8,-480.212 -412.821,-1008.95 -466.375,-1549.44c-53.225,-537.171 -2.062,-1083.8 149.867,-1601.77c38.2,-130.25 82.733,-258.621 133.446,-384.529c9.487,-23.55 52.625,-116.775 5.721,-16.709c13.52,-28.841 26.783,-57.787 40.725,-86.437c31.862,-65.504 65.425,-130.188 100.704,-193.925c135.204,-244.238 294.679,-474.908 475.079,-687.946c367.612,-434.104 820.712,-794.892 1327.17,-1054.07c488.587,-250.033 1024.48,-404.687 1570.81,-456.062c541.413,-50.908 1091.86,-0.629 1614.84,148.596c530.737,151.437 1031.27,404.604 1466.39,744.312c447.867,349.667 826.259,788.492 1100.36,1286.53c263.433,478.658 428.941,1009.53 484.287,1553.08c54.35,533.754 2.546,1077.28 -151.766,1591.13c-38.942,129.654 -84.163,257.525 -136.167,382.525l-53.771,111.096c-31.412,62.366 -64.458,123.9 -99.071,184.55c-138.662,242.937 -302.308,471.454 -487.116,681.417c-376.017,427.195 -838.488,776.787 -1353.09,1020.01c-495.021,233.962 -1035.36,368.804 -1582.01,397.566c-541.662,28.492 -1088.2,-46.995 -1601.42,-222.741c-525.171,-179.846 -1012.8,-464.629 -1426.6,-834.733c-423.883,-379.126 -768.971,-844.775 -1001.07,-1364.35c-220.341,-493.25 -337.854,-1030.75 -343.904,-1570.93c-6.012,-536.762 100.671,-1064.1 301.183,-1560.92l58.013,-118.537c30.375,-59.492 62.292,-118.192 95.671,-176.05c67.021,-116.175 139.933,-228.942 218.321,-337.771c161.212,-223.808 345.612,-430.296 548.416,-617.167c4.388,-4.037 10.113,-21.433 11.667,-24.866l53.404,-121.35c2.671,-6.25 5.779,-21.092 10.45,-25.4c-214.358,197.52 -408.117,416.991 -575.717,655.55c-169.995,241.962 -306.637,501.429 -425.5,771.733c-115.633,262.962 -212.32,531.512 -275.308,812.192c-60.008,267.383 -92.217,540.954 -95.996,814.962c-7.562,548.613 99.821,1097.44 314.284,1602.49c224.591,528.904 565.216,1004.56 987.858,1393.31c417.129,383.684 912.471,679.434 1447.59,865.95c522.375,182.084 1079.94,259.996 1632.24,229.759c554.429,-30.355 1102.09,-169.88 1602.33,-411.121c520.154,-250.846 985.829,-610.813 1361.37,-1049.4c185.529,-216.679 348.696,-452.458 485.596,-702.742c144.6,-264.367 267.925,-545.242 363.879,-830.908c174.296,-518.892 242.879,-1072.15 200.621,-1617.9c-42.579,-549.892 -197.479,-1089.56 -453.45,-1578.12c-268.046,-511.617 -645.121,-963.788 -1095.35,-1325.06c-438.225,-351.646 -945.417,-614.579 -1484.67,-772.079c-532.337,-155.479 -1093.77,-208.279 -1645.82,-155.792c-554.087,52.684 -1097.3,211.65 -1591.21,468.496c-513.367,266.967 -971.021,638.725 -1338.99,1085.21c-181.116,219.762 -340.033,457.604 -473.633,709.104c-140.662,264.8 -262.046,544.396 -355.783,829.3c-171.167,520.246 -239.338,1073.31 -200.029,1619.56c39.683,551.446 189.02,1093.71 437.591,1587.57c259.609,515.788 625.967,975.229 1065.92,1348.74c429.634,364.742 928.938,644.938 1463.53,823.113c523.47,174.467 1078.66,251.125 1629.83,226.496c557.254,-24.896 1109.38,-153.45 1619.33,-379.779c526.454,-233.659 1004.66,-570.684 1403.39,-986.196c198.442,-206.792 376.917,-432.7 531.537,-674.033c165.767,-258.73 297.7,-534.634 416.763,-817.475c211.721,-502.959 329.662,-1042.93 343.25,-1588.64c13.692,-550.096 -78.208,-1101.92 -269.946,-1617.73c-198.296,-533.463 -502.762,-1024.98 -888.571,-1443.11c-387.925,-420.416 -854.75,-766.25 -1370.21,-1014.35c-498.808,-240.075 -1040.75,-388.183 -1592.01,-437.616c-138.433,-12.413 -277.491,-18.609 -416.437,-18.609c-414.146,-0.012 -828.079,54.988 -1227.7,164.279Zm-2537.23,2857.01l-1.217,2.666c-0.008,0 0.487,-1.083 1.217,-2.666Zm7908.37,3211.58c0.021,-0.05 0.021,-0.05 0,0Zm-0.004,0.008c-0.004,0.005 -0.004,0.009 -0.008,0.013c0.004,-0.004 0.004,-0.008 0.008,-0.013Zm-19.846,45.046l-0.746,1.734c0.246,-0.58 0.496,-1.155 0.746,-1.734Z" style="fill:url(#_Linear1);fill-rule:nonzero;"/><path d="M6041.81,5073.8c15.729,19.279 31.479,38.546 46.575,58.279c313.063,409.313 459.084,862.163 376.863,1372.56c-47.383,294.167 -171.325,561.663 -319.884,818.975c-101.491,175.788 -229.195,340.021 -309.916,523.917c-237.846,541.879 -179.721,1063.23 162.046,1552.58c9.687,13.871 21.716,26.213 40.22,46.742c4.259,4.721 12.275,1.208 11.4,-5c-8.65,-61.142 -15.479,-108.292 -21.837,-155.504c-55.146,-409.538 131.442,-743.842 515.208,-923.258c226.305,-105.805 468.271,-148.975 716.442,-165.234c242.604,-15.887 284.854,-66.846 216.208,-289.037c-34.545,-111.804 -30.545,-211.263 35.375,-311.204c43.963,-66.646 19.184,-127.875 -56.991,-157.642c-34.413,-13.45 -71.575,-20.317 -109.442,-29.704c-4.967,-1.234 -6.554,-7.363 -2.804,-10.75c40.567,-36.65 81.012,-68.913 114.379,-106.979c41.675,-47.546 33.05,-89.63 -17.129,-128c-73.875,-56.488 -88.113,-90.746 -53.854,-174.213c17.691,-43.108 47.012,-84.15 79.508,-118.708c88.875,-94.504 81.9,-154.713 -33.796,-222.004c-78.912,-45.9 -161.283,-86.63 -237.637,-136.134c-65.784,-42.65 -125.3,-94.346 -178.559,-135.187c-0.337,-0.263 -0.641,-0.55 -0.925,-0.867c-43.054,-48.633 -76.404,-119.421 -79,-124.996c-0.12,-0.258 -0.204,-0.483 -0.283,-0.754c-26.358,-86.921 -55.396,-168.933 -75.925,-252.9c-82.825,-338.767 -267.746,-608.796 -568.346,-802.708c-54.187,-34.959 -107.587,-71.092 -162.483,-104.967c-21.975,-13.558 -45.075,-25.408 -68.15,-37.292c-9.55,11.055 -7.713,8.93 -17.263,19.988Z" style="fill:url(#_Linear2);fill-rule:nonzero;"/><path d="M7055.78,6160.1l-16.137,-2.846c5.379,0.946 10.758,1.896 16.137,2.846Z" style="fill:url(#_Linear3);fill-rule:nonzero;"/><path d="M5922.75,5239.5c-8.329,5.317 -12.675,24.808 -10.333,31.2c1.65,7.6 1.35,5.458 2.121,8.671l35.629,134.458l14.6,57.7l14.633,69.825l11.338,70.337l6.975,58.892l4.708,70.904l1.129,59.142l-2.779,70.821l-5.383,58.767c-8.034,62.416 -20.917,124.049 -38.579,184.35c-4.825,14.941 -10.021,29.77 -14.992,44.658c-2.617,7.4 -4.804,14.954 -7.75,22.233l-17.767,43.633c-2.971,7.267 -5.762,14.613 -9.35,21.613l-25.442,53.121l-33.979,61.15l-38.291,60.491l-20.184,30.071c-143.445,213.792 -284.2,427.525 -434.066,631.967c-74.846,102.479 -150.85,204.012 -223.884,307.3c-72.758,103.479 -143.02,208.521 -205.487,317.767l-23.196,41.179c-7.479,13.846 -15.404,27.733 -22.496,41.516c-7.146,13.788 -14.283,27.563 -21.421,41.33l-41.316,84.158l-39.109,84.587c-6.175,14.23 -12.35,28.446 -18.516,42.65c-49.204,113.676 -92.254,229.271 -127.075,346.463c-34.842,117.154 -61.396,235.921 -77.979,355.071c-8.28,59.566 -14.13,119.204 -17.346,178.708c-3.109,59.492 -3.859,118.721 -1.809,178.15l1.867,44.038l5.329,76.483l5.929,54.496c7.1,57.941 16.971,115.254 29.805,171.575c25.604,112.641 63.291,221.3 112.795,322.608c49.413,101.35 110.567,195.179 180.463,279.363c69.954,84.195 148.442,158.733 231.592,223.895c10.5,8.017 20.716,16.35 31.379,24.05c10.612,7.763 21.204,15.509 31.766,23.238c10.809,7.492 21.596,14.971 32.359,22.429l48.7,31.867l49.883,29.996l50.75,27.637l17.146,8.575c91.179,46.133 186.012,79.817 280.55,105.083c47.458,11.946 94.696,22.755 141.933,30.396c23.525,4.396 47.129,7.342 70.525,10.734l70.042,7.891c23.296,1.834 46.337,4.246 69.492,5.296c11.55,0.663 23.066,1.325 34.545,1.988l68.117,1.954l67.438,0.304c11.166,-0.288 22.295,-0.571 33.395,-0.85c44.4,-0.658 88.159,-3.633 131.305,-6.525c21.529,-2.071 42.912,-4.129 64.145,-6.171l86.43,-11.217l76.608,-13.325l74.596,-16.095l65.258,-16.996l84.212,-25.604l54.109,-19.384c8.946,-3.183 17.875,-6.308 26.521,-10.054c17.408,-7.171 34.666,-14.275 51.771,-21.317l74.52,-34.408l70.592,-37.158l66.608,-39.459l62.771,-41.416l72.804,-53.217l40.829,-32.779c11.759,-9.8 23.088,-19.829 34.43,-29.542c11.462,-9.579 22.116,-19.8 32.808,-29.679c10.646,-9.933 21.342,-19.537 31.212,-29.737c10.021,-10.03 19.905,-19.93 29.659,-29.692c9.379,-10.117 18.625,-20.1 27.746,-29.933l38.845,-44.43c4.188,-4.85 8.342,-9.666 12.188,-14.675c15.642,-19.825 31.083,-38.787 44.671,-58.15c6.887,-9.612 13.958,-18.829 20.341,-28.291c6.346,-9.488 12.58,-18.809 18.692,-27.95c48.467,-73.509 82.546,-140.409 107.15,-195.759l27.671,-65.741l22.642,-63.071c9.55,-29.663 14.495,-45.025 14.533,-45.146c-0.038,0.121 -5.271,15.392 -15.371,44.867l-23.775,62.562l-28.729,65.146c-25.45,54.804 -60.512,120.917 -109.933,193.25c-6.234,9 -12.584,18.163 -19.046,27.496c-6.5,9.3 -13.692,18.358 -20.688,27.796c-13.816,19.029 -29.504,37.604 -45.316,57.071l-25.05,28.841c-8.563,9.688 -17.113,19.65 -26.455,29.142c-9.191,9.637 -18.504,19.412 -27.958,29.329c-9.812,9.55 -19.762,19.238 -29.85,29.054c-9.929,9.975 -20.683,19.359 -31.383,29.067c-10.746,9.654 -21.446,19.637 -32.95,28.987c-11.392,9.471 -22.763,19.255 -34.559,28.813l-45.533,35.308l-48.583,34.725c-6.592,4.65 -13.088,9.592 -19.992,13.813l-62.437,39.937l-66.446,38.109l-70.292,35.787l-49.008,22.271c-8.254,3.717 -16.459,7.662 -25.017,10.871c-16.979,6.758 -34.108,13.579 -51.387,20.462l-79.95,28.15l-55.325,16.425c-9.317,2.684 -18.575,5.713 -28.117,7.879l-71.942,17.521l-74.029,14.788l-75.979,11.983l-77.792,9.142c-21.004,1.779 -42.15,3.566 -63.441,5.362c-42.675,2.359 -85.93,4.804 -129.846,4.942c-10.971,0.15 -21.975,0.3 -33.021,0.454l-83.338,-1.467l-50.945,-2.158c-11.246,-0.754 -22.525,-1.504 -33.838,-2.262c-22.612,-1.23 -45.404,-3.834 -68.304,-5.834l-68.854,-8.4c-22.971,-3.546 -46.15,-6.641 -69.2,-11.175c-46.321,-7.921 -92.517,-18.954 -138.871,-31.058c-92.3,-25.588 -184.529,-59.3 -272.883,-105.033l-33.071,-17.392l-48.834,-28.142l-47.925,-30.275c-10.591,-7.166 -21.512,-14.212 -31.912,-21.512c-10.354,-7.321 -20.729,-14.659 -31.129,-22.009c-10.254,-7.65 -20.538,-15.312 -30.838,-22.991c-10.354,-7.617 -20.254,-15.859 -30.441,-23.779c-80.542,-64.463 -156.5,-137.438 -223.888,-219.655c-67.333,-82.2 -125.979,-173.512 -173.221,-272.041c-47.329,-98.492 -83.187,-204.063 -107.358,-313.692c-12.108,-54.812 -21.35,-110.633 -27.892,-167.125l-5.433,-53.146c-0.192,-2.262 -0.329,-2.887 -0.421,-4.821l-5.517,-92.258l-0.337,-21.45c-1.571,-57.062 -0.488,-115.092 2.937,-173.171l4.621,-65.429l9.767,-87.304l3.325,-21.788c16.679,-116.404 43.113,-232.558 77.75,-347.358c34.617,-114.821 77.375,-228.3 126.304,-340.121c6.133,-13.975 12.267,-27.958 18.408,-41.958l38.909,-83.288l40.862,-82.416c7.188,-13.738 14.38,-27.488 21.584,-41.246l33.283,-60.463l11.612,-20.012c61.696,-106.929 131.409,-210.304 203.98,-312.646c72.808,-102.25 148.7,-203.421 224.066,-306.108c151.179,-205.559 293.179,-419.634 436.467,-633.125l27.138,-40.859l32.27,-51.004c2.179,-3.35 4.1,-7.2 6.159,-10.779l30.35,-54.696l26.804,-55.837c3.758,-7.367 6.721,-15.092 9.858,-22.738l18.729,-45.941l24.013,-70.484c18.696,-63.554 32.316,-128.533 40.791,-194.229l6.513,-74.162l2.15,-61.963l-1.129,-61.925l-4.938,-74.066l-9.029,-73.563l-10.1,-60.85l-15.212,-72.321l-8.43,-33.25c14.621,28.884 28.371,58.179 41.23,87.783c12.737,28.884 24.016,58.33 34.879,87.884c5.104,14.879 10.362,29.717 15.104,44.704c4.592,15.033 9.508,29.971 13.521,45.154l11.95,45.529c4.004,15.175 6.912,30.579 10.358,45.867l8.517,46.192c2.325,15.47 5,30.895 6.7,46.437l6.054,58.271l2.158,35.063c1.234,31.179 1.846,62.383 0.696,93.537c-1.875,62.304 -8.425,124.396 -19.783,185.571c-11.229,61.191 -26.654,121.554 -45.921,180.612c-5.071,14.688 -9.896,29.438 -15.146,44.054c-5.362,14.88 -10.712,29.78 -16.183,44.342c-10.813,29.3 -22.196,58.575 -33.713,87.625c-46.3,116.213 -97.837,229.663 -155.133,339.217c-115.075,219.046 -250.829,424.575 -374.754,633.475c-30.996,52.316 -61.242,104.554 -90.434,157.737c-14.258,26.467 -28.824,52.4 -42.533,79.421c-6.933,13.392 -13.862,26.763 -20.787,40.121c-6.85,13.383 -13.313,26.883 -19.971,40.292c-52.875,107.429 -100.329,216.4 -140.483,326.812c-80.446,220.7 -133.221,446.571 -153.838,669.675c-10.571,111.638 -11.321,223.129 0.438,332c11.75,108.788 36.333,215.05 75.87,313.833c39.171,98.884 92.467,190.1 155.859,270.521c63.362,80.442 136.296,150.692 213.508,210.509c39.729,29.875 80.475,56.487 122.333,80.283c42.159,23.246 85.171,43.654 128.592,61.533c43.617,17.4 87.567,32.238 131.467,45.079c44.054,12.271 87.946,22.867 131.629,31.355c43.7,8.3 87.004,15.558 129.921,20.841l63.925,7.305c20.975,2.529 42.333,3.758 63.3,5.541c83.971,6.171 165.746,7.358 244.858,3.583c158.204,-7.429 305.212,-35.208 435.192,-78.462c65.008,-21.567 125.954,-46.463 182.304,-74.067c56.312,-27.696 108.15,-57.675 155.808,-88.429c11.788,-7.887 23.417,-15.667 34.888,-23.337l49.321,-35.5l45.774,-35.825l42.376,-35.746l39.058,-35.396c8.437,-7.679 16.283,-15.688 24.225,-23.292c63.108,-61.329 111.925,-118.154 149.979,-165.266c9.387,-11.892 18.221,-23.092 26.496,-33.584l41.212,-55.654l35.196,-50.721c2.35,-3.191 4.496,-5.308 5.817,-6.804c1.337,-1.496 2.004,-2.25 2.004,-2.25c-0,0 -0.683,0.742 -2.042,2.213c-1.35,1.47 -3.533,3.541 -5.958,6.712l-36.129,50.042l-42.184,54.829c-8.437,10.342 -17.445,21.375 -27.008,33.092c-38.762,46.404 -88.4,102.275 -152.246,162.3c-8.033,7.441 -15.971,15.287 -24.496,22.787l-39.441,34.579l-42.696,34.871l-45.983,34.954l-49.48,34.555c-11.487,7.45 -23.137,15.008 -34.937,22.675c-47.725,29.837 -99.521,58.825 -155.663,85.458c-56.183,26.542 -116.829,50.312 -181.395,70.725c-64.588,20.341 -133.184,37.092 -205.225,49.4c-72.042,12.292 -147.521,20.042 -225.7,22.842c-78.155,2.816 -159.096,0.683 -241.834,-6.363c-82.754,-7.2 -167.958,-18.521 -253.662,-36.238c-42.904,-8.854 -85.854,-19.799 -128.917,-32.166c-42.879,-12.971 -85.679,-27.871 -128.037,-45.213c-42.142,-17.816 -83.767,-38.037 -124.455,-60.958c-40.383,-23.442 -79.733,-49.742 -117.208,-78.392l-41.854,-34.4l-53.658,-48.9l-12.909,-12.904c-34.491,-34.408 -67.216,-71.212 -97.496,-110.45c-60.637,-78.404 -111.17,-166.804 -148.075,-262.496c-18.445,-47.829 -33.766,-97.358 -45.487,-148.208c-11.767,-50.833 -20.217,-102.896 -25.587,-155.725c-10.709,-105.696 -9.317,-214.287 1.762,-323.521c21.708,-219.004 74.983,-440.504 155.579,-657.196l31.509,-81.05l34.029,-80.541c11.971,-26.667 23.408,-53.65 36.212,-80.113c6.254,-13.287 12.521,-26.596 18.796,-39.921l39.442,-79.32c6.846,-13.08 13.695,-26.176 20.554,-39.284c13.416,-26.229 28.291,-52.466 42.6,-78.787c28.783,-51.942 59.162,-103.959 90.096,-155.688c123.925,-207.104 260.9,-412.521 378.72,-634.541c58.659,-111.075 111.425,-226.021 158.867,-343.725c11.771,-29.492 23.308,-58.996 34.421,-88.925c5.658,-14.988 11.017,-29.813 16.404,-44.671c5.471,-15.121 10.521,-30.429 15.8,-45.654c20.129,-61.259 36.325,-124.071 48.171,-187.905c11.979,-63.812 18.979,-128.762 21.075,-194.004c1.262,-32.616 0.7,-65.312 -0.542,-97.983l-3.283,-48.954l-5.113,-48.829c-7.879,-65.03 -21.17,-129.413 -38.891,-192.521c-4.196,-15.859 -9.288,-31.438 -14.075,-47.113c-4.942,-15.629 -10.396,-31.087 -15.709,-46.591c-11.275,-30.767 -23,-61.4 -36.195,-91.392c-26.071,-60.133 -55.525,-118.696 -88.413,-175.396l-41.021,-67.958c-3.7,-7.238 -15.562,-16.284 -26.45,-16.804c-1.254,-0.113 -2.487,-0.167 -3.704,-0.167c-9.412,-0 -17.842,3.296 -24.95,9.925Zm46.921,21.771c0.167,0.266 0.275,0.691 0.333,1.233c-0.112,-0.408 -0.221,-0.821 -0.333,-1.233Zm-41.167,15.775l0.946,1.533c-0.408,-0.546 -0.729,-1.062 -0.946,-1.533Zm1838.32,4251.46l0.004,0l0,-0.004l-0.004,0l-0,0.004Z" style="fill:url(#_Linear4);fill-rule:nonzero;"/><path d="M5360.06,8451.88c-0.012,0.038 -0.029,0.075 -0.041,0.117c-3.513,10.246 -6.721,20.675 -8.875,31.254c-55.7,273.358 -47.009,544.85 32.412,812.658c134.833,454.638 513.954,751.713 1001.38,760.434c470.388,8.416 815.854,-213.388 1058.72,-594.992c1.017,-1.604 0.963,-3.85 0.546,-6.525c-0.741,-4.75 -6.587,-6.929 -10.496,-3.979c-79.537,60.112 -153.066,122.037 -233.6,173.771c-380.82,244.637 -779.812,293.404 -1196.74,90.07c-163.013,-79.5 -284.888,-202.641 -373.854,-355.92c-162.121,-279.296 -231.938,-583.204 -256.909,-905.038c-0.291,-3.771 -3.525,-5.892 -6.691,-5.892c-2.455,0 -4.871,1.275 -5.855,4.042Z" style="fill:url(#_Linear5);fill-rule:nonzero;"/><g transform="matrix(4.16667,0,0,4.16667,0,0)"><g transform="matrix(1.34655,0,0,1,-675.428,0)"><text x="1949.01px" y="1934.19px" style="font-family:'Allura-Regular', 'Allura';font-size:377.304px;fill:#ee287c;">K</text></g><g transform="matrix(1.34655,0,0,1,-777.378,0)"><text x="2243.19px" y="1934.19px" style="font-family:'Lato-Light', 'Lato', sans-serif;font-weight:300;font-size:337.885px;fill:#ee287c;">c<tspan x="2409.5px 2594.73px " y="1934.19px 1934.19px ">ee</tspan></text></g></g><g transform="matrix(1,0,0,0.795172,0,0)"><text x="8137.53px" y="11213.6px" style="font-family:'Lato-Light', 'Lato', sans-serif;font-weight:300;font-size:1375px;fill:#ee287c;">B<tspan x="9018.64px 9721.01px 10389.7px 11133.3px 11623.2px " y="11213.6px 11213.6px 11213.6px 11213.6px 11213.6px ">eauty</tspan></text></g></g><defs><linearGradient id="_Linear1" x1="0" y1="0" x2="1" y2="0" gradientUnits="userSpaceOnUse" gradientTransform="matrix(9129.69,0,0,9129.69,4112.78,8079.75)"><stop offset="0" style="stop-color:#9f792c;stop-opacity:1"/><stop offset="0.12" style="stop-color:#c3992d;stop-opacity:1"/><stop offset="0.26" style="stop-color:#f0c341;stop-opacity:1"/><stop offset="0.4" style="stop-color:#fde166;stop-opacity:1"/><stop offset="0.55" style="stop-color:#af882d;stop-opacity:1"/><stop offset="0.67" style="stop-color:#d6aa29;stop-opacity:1"/><stop offset="0.82" style="stop-color:#f9d256;stop-opacity:1"/><stop offset="1" style="stop-color:#eace5f;stop-opacity:1"/></linearGradient><linearGradient id="_Linear2" x1="0" y1="0" x2="1" y2="0" gradientUnits="userSpaceOnUse" gradientTransform="matrix(1840.91,0,0,1840.91,5691.29,7251.43)"><stop offset="0" style="stop-color:#9f792c;stop-opacity:1"/><stop offset="0.12" style="stop-color:#c3992d;stop-opacity:1"/><stop offset="0.26" style="stop-color:#f0c341;stop-opacity:1"/><stop offset="0.4" style="stop-color:#fde166;stop-opacity:1"/><stop offset="0.55" style="stop-color:#af882d;stop-opacity:1"/><stop offset="0.67" style="stop-color:#d6aa29;stop-opacity:1"/><stop offset="0.82" style="stop-color:#f9d256;stop-opacity:1"/><stop offset="1" style="stop-color:#eace5f;stop-opacity:1"/></linearGradient><linearGradient id="_Linear3" x1="0" y1="0" x2="1" y2="0" gradientUnits="userSpaceOnUse" gradientTransform="matrix(16.1358,0,0,16.1358,7039.65,6158.67)"><stop offset="0" style="stop-color:#9f792c;stop-opacity:1"/><stop offset="0.12" style="stop-color:#c3992d;stop-opacity:1"/><stop offset="0.26" style="stop-color:#f0c341;stop-opacity:1"/><stop offset="0.4" style="stop-color:#fde166;stop-opacity:1"/><stop offset="0.55" style="stop-color:#af882d;stop-opacity:1"/><stop offset="0.67" style="stop-color:#d6aa29;stop-opacity:1"/><stop offset="0.82" style="stop-color:#f9d256;stop-opacity:1"/><stop offset="1" style="stop-color:#eace5f;stop-opacity:1"/></linearGradient><linearGradient id="_Linear4" x1="0" y1="0" x2="1" y2="0" gradientUnits="userSpaceOnUse" gradientTransform="matrix(3306.82,0,0,3306.82,4528.82,7917.92)"><stop offset="0" style="stop-color:#9f792c;stop-opacity:1"/><stop offset="0.12" style="stop-color:#c3992d;stop-opacity:1"/><stop offset="0.26" style="stop-color:#f0c341;stop-opacity:1"/><stop offset="0.4" style="stop-color:#fde166;stop-opacity:1"/><stop offset="0.55" style="stop-color:#af882d;stop-opacity:1"/><stop offset="0.67" style="stop-color:#d6aa29;stop-opacity:1"/><stop offset="0.82" style="stop-color:#f9d256;stop-opacity:1"/><stop offset="1" style="stop-color:#eace5f;stop-opacity:1"/></linearGradient><linearGradient id="_Linear5" x1="0" y1="0" x2="1" y2="0" gradientUnits="userSpaceOnUse" gradientTransform="matrix(2128.98,0,0,2128.98,5315.5,9252.2)"><stop offset="0" style="stop-color:#9f792c;stop-opacity:1"/><stop offset="0.12" style="stop-color:#c3992d;stop-opacity:1"/><stop offset="0.26" style="stop-color:#f0c341;stop-opacity:1"/><stop offset="0.4" style="stop-color:#fde166;stop-opacity:1"/><stop offset="0.55" style="stop-color:#af882d;stop-opacity:1"/><stop offset="0.67" style="stop-color:#d6aa29;stop-opacity:1"/><stop offset="0.82" style="stop-color:#f9d256;stop-opacity:1"/><stop offset="1" style="stop-color:#eace5f;stop-opacity:1"/></linearGradient></defs></svg>